Coordinates
version=1
nRows=12
nColumns=24
inDegrees=yes

Units are S.I. units (second, meters, Newtons, ...)
Angles are in degrees.

endheader
time	pelvis_tilt	pelvis_list	pelvis_rotation	pelvis_tx	pelvis_ty	pelvis_tz	hip_flexion_r	hip_adduction_r	hip_rotation_r	knee_angle_r	ankle_angle_r	subtalar_angle_r	mtp_angle_r	hip_flexion_l	hip_adduction_l	hip_rotation_l	knee_angle_l	ankle_angle_l	subtalar_angle_l	mtp_angle_l	lumbar_extension	lumbar_bending	lumbar_rotation
      3.72000000	      0.06865962	      5.13099340	     -2.33032827	     -0.64381443	      0.93810126	      0.24651717	     23.06839041	     -4.32138496	      1.55959065	    -68.37620524	      9.60122114	     -8.43894606	      0.00000000	     14.10241578	     12.36678214	      2.68994932	    -24.17883623	     15.86609474	    -17.14220878	      0.00000000	     -9.87911952	     -7.51580887	     -8.14707268
      3.72500000	      0.11155206	      4.89661002	     -2.09767952	     -0.63763608	      0.93940436	      0.24603662	     23.46991817	     -4.05615364	      1.48862485	    -67.39377093	     10.12139389	     -8.14266413	      0.00000000	     13.33688780	     12.24001339	      3.20641290	    -23.72193613	     15.89688830	    -17.34146773	      0.00000000	     -9.98720072	     -7.18998289	     -8.38228021
      3.73000000	      0.15916575	      4.67135170	     -1.86607208	     -0.63148054	      0.94066634	      0.24557126	     23.83582093	     -3.79811038	      1.41884440	    -66.32067398	     10.54733215	     -7.95925022	      0.00000000	     12.56405275	     12.11535106	      3.74975650	    -23.25468483	     15.89795979	    -17.56229098	      0.00000000	    -10.10119346	     -6.87561452	     -8.59977002
      3.73500000	      0.18997150	      4.45882666	     -1.63143857	     -0.62533381	      0.94182997	      0.24510803	     24.19195138	     -3.55593171	      1.34488939	    -65.16850517	     10.90463910	     -7.85684845	      0.00000000	     11.81516790	     11.99176714	      4.26983912	    -22.78915750	     15.90842558	    -17.76833400	      0.00000000	    -10.19166893	     -6.57877992	     -8.82020048
      3.74000000	      0.20945292	      4.25997757	     -1.39414264	     -0.61919856	      0.94290211	      0.24463822	     24.53153985	     -3.33188790	      1.26737310	    -63.93728415	     11.19645283	     -7.84192298	      0.00000000	     11.08396076	     11.87213185	      4.77321221	    -22.32489046	     15.92281506	    -17.96469525	      0.00000000	    -10.26561287	     -6.29491441	     -9.04452958
      3.74500000	      0.19976979	      4.06835219	     -1.16263128	     -0.61305919	      0.94384285	      0.24416762	     24.87638235	     -3.12196925	      1.17851979	    -62.63233007	     11.43446977	     -7.90800842	      0.00000000	     10.39291801	     11.74597800	      5.21914108	    -21.86455215	     15.96474535	    -18.14393260	      0.00000000	    -10.29854307	     -6.01789744	     -9.24459362
      3.75000000	      0.20928366	      3.90726949	     -0.91676336	     -0.60695512	      0.94474924	      0.24369614	     25.16716705	     -2.93876959	      1.11205654	    -61.24691763	     11.60823149	     -8.06677726	      0.00000000	      9.68405810	     11.64751331	      5.71452637	    -21.40736068	     15.97381177	    -18.30888859	      0.00000000	    -10.35893282	     -5.77400628	     -9.50878345
      3.75500000	      0.20393892	      3.75963424	     -0.67630549	     -0.60082852	      0.94554494	      0.24323506	     25.44298454	     -2.77572414	      1.04170507	    -59.78756043	     11.74413209	     -8.28052075	      0.00000000	      8.99860803	     11.55155370	      6.16371094	    -20.95495565	     16.00397894	    -18.47311841	      0.00000000	    -10.38973475	     -5.55183190	     -9.74363467
      3.76000000	      0.18758606	      3.62737818	     -0.43812868	     -0.59471161	      0.94623958	      0.24277868	     25.70274505	     -2.63221934	      0.97300449	    -58.25786590	     11.84062686	     -8.55644858	      0.00000000	      8.33016288	     11.46210613	      6.59384239	    -20.50417779	     16.04212036	    -18.62292266	      0.00000000	    -10.40682684	     -5.34561140	     -9.98060374
      3.76500000	      0.13658619	      3.49821812	     -0.21245088	     -0.58857488	      0.94679997	      0.24234249	     25.97073743	     -2.49423972	      0.90279016	    -56.65669060	     11.89309764	     -8.88561419	      0.00000000	      7.70701316	     11.36402444	      6.97112567	    -20.06030784	     16.10580493	    -18.75794632	      0.00000000	    -10.37394372	     -5.14814147	    -10.17428753
      3.77000000	      0.13653809	      3.40823467	      0.03858643	     -0.58248152	      0.94735585	      0.24189890	     26.15000238	     -2.40498412	      0.84106320	    -54.98798371	     11.92383988	     -9.23556529	      0.00000000	      7.02523530	     11.30534979	      7.42036376	    -19.61001254	     16.13812646	    -18.89953682	      0.00000000	    -10.41222073	     -4.99588431	    -10.46177886
      3.77500000	      0.05936516	      3.31004249	      0.24318702	     -0.57635290	      0.94770693	      0.24147495	     26.38939713	     -2.30233152	      0.79371557	    -53.25359806	     11.91289742	     -9.61965616	      0.00000000	      6.44093026	     11.22620977	      7.76415193	    -19.17460833	     16.21406381	    -19.02167053	      0.00000000	    -10.33907357	     -4.82935923	    -10.63188934
